<?xml version="1.0" encoding="utf-8"?>
<!-- Generator: Adobe Illustrator 19.1.0, SVG Export Plug-In . SVG Version: 6.00 Build 0)  -->
<svg version="1.1" id="iconmonstr" xmlns="http://www.w3.org/2000/svg" xmlns:xlink="http://www.w3.org/1999/xlink" x="0px" y="0px"
	 viewBox="0 0 24 24" style="enable-background:new 0 0 24 24;" xml:space="preserve">
<path id="magnifier-1" d="M23.8,20.9l-6.4-6.4c0.9-1.5,1.5-3.2,1.5-5.1c0-5.2-4.2-9.5-9.5-9.5C4.2,0,0,4.2,0,9.5
	c0,5.2,4.2,9.5,9.5,9.5c1.8,0,3.4-0.5,4.8-1.3l6.4,6.4L23.8,20.9z M3.5,9.5c0-3.3,2.7-5.9,5.9-5.9c3.3,0,5.9,2.7,5.9,5.9
	c0,3.3-2.7,5.9-5.9,5.9C6.2,15.4,3.5,12.7,3.5,9.5z"/>
</svg>
